# xmcd
#
# Track frame offsets: 
#        150
#        12363
#        22442
#        36531
#        53350
#        68801
#        79751
#        92387
#        106033
#        117671
#        128076
#        144475
#        165968
#        177475
#
# Disc length: 2584 seconds
#
# Revision: 0
# Processed by: cddbd v1.5.2PL0 Copyright (c) Steve Scherf et al.
# Submitted via: ExactAudioCopy v1.0b3
#
DISCID=b50a160e
DTITLE=Various Artist - Country Love Songs - CD 3 (Green, Green Gras 
DTITLE=of Home)
DYEAR=2012
DGENRE=Country
TTITLE0=Johnny Cash - I Walk the Line
TTITLE1=Porter Wagoner - Green, Green Grass of Home
TTITLE2=B. J. Thomas - I'd Rather Be Lonely
TTITLE3=Carl Rose - For the Good Times
TTITLE4=Rosie Carey - My Blue Ridge Mountain Boy
TTITLE5=Jim Croce - Time in a Bottle
TTITLE6=Jim Jameson - Follow Me
TTITLE7=Arizona Four - Heart of Gold
TTITLE8=Guy Mitchell - Heartaches By the Number
TTITLE9=Ferlin Husky - Wings of a Dove
TTITLE10=Allie Grey - Come On Over
TTITLE11=Brianna ''Blueyed'' Lee - Strawberry Wine
TTITLE12=Ronnie Cage - Hello Darlin'
TTITLE13=Free Birds Of Kentucky - A Horse With No Name
EXTD=
EXTT0=
EXTT1=
EXTT2=
EXTT3=
EXTT4=
EXTT5=
EXTT6=
EXTT7=
EXTT8=
EXTT9=
EXTT10=
EXTT11=
EXTT12=
EXTT13=
PLAYORDER=
